<svg width="24" height="24" viewBox="0 0 24 24" fill="none" xmlns="http://www.w3.org/2000/svg">
<g clip-path="url(#clip0_902_20)">
<circle cx="12" cy="12" r="12" fill="#313131"/>
<path d="M8.07478 17.8463C8.07478 18.0171 8.06577 18.107 8.04776 18.116C8.02974 18.125 7.96218 18.0711 7.84508 17.9542L2.6296 12.7214C2.57556 12.6675 2.53051 12.6225 2.49448 12.5865C2.46746 12.5506 2.44494 12.5191 2.42692 12.4921C2.41792 12.4562 2.40891 12.4157 2.3999 12.3708C2.3999 12.3258 2.3999 12.2674 2.3999 12.1954V11.8448C2.3999 11.7728 2.3999 11.7144 2.3999 11.6695C2.40891 11.6245 2.41792 11.5885 2.42692 11.5616C2.44494 11.5256 2.46746 11.4896 2.49448 11.4537C2.53051 11.4177 2.57556 11.3727 2.6296 11.3188C4.64527 9.27527 5.77537 8.12955 7.79104 6.08602C7.93516 5.94216 8.01623 5.87473 8.03424 5.88372C8.06127 5.89271 8.07478 6.00061 8.07478 6.2074V6.71989C8.07478 6.8098 8.07028 6.88173 8.06127 6.93567C8.06127 6.98962 8.05226 7.03458 8.03424 7.07054C8.02523 7.1065 8.00272 7.14247 7.96669 7.17843C7.93967 7.2144 7.89462 7.26385 7.83157 7.32678L3.39976 11.8178C3.30067 11.9167 3.24663 11.9841 3.23763 12.0201C3.23763 12.0471 3.28266 12.1055 3.37274 12.1954C3.72404 12.5461 4.08885 12.9147 4.46718 13.3013C4.8455 13.6789 5.22833 14.0656 5.61566 14.4612C6.003 14.8478 6.38583 15.2344 6.76415 15.621C7.15149 16.0076 7.52081 16.3763 7.87211 16.7269C7.97119 16.8348 8.02974 16.9112 8.04776 16.9562C8.06577 17.0011 8.07478 17.1045 8.07478 17.2664V17.8463Z" fill="#7EC0C8"/>
<path d="M14.2091 6.78732C14.3171 6.78732 14.3757 6.79631 14.3847 6.81429C14.4027 6.83228 14.3937 6.89072 14.3577 6.98962L10.5879 17.1045C10.5519 17.1854 10.5249 17.2304 10.5069 17.2394C10.4889 17.2574 10.4303 17.2664 10.3312 17.2664H9.76373C9.65564 17.2664 9.59259 17.2574 9.57457 17.2394C9.56556 17.2214 9.57907 17.1675 9.6151 17.0776L13.3848 6.97613C13.4209 6.88622 13.4479 6.83228 13.4659 6.81429C13.4929 6.79631 13.565 6.78732 13.6821 6.78732H14.2091Z" fill="#E791AF"/>
<path d="M15.898 17.2933C15.898 17.2124 15.898 17.1495 15.898 17.1045C15.898 17.0596 15.9025 17.0191 15.9115 16.9832C15.9295 16.9472 15.9521 16.9112 15.9791 16.8753C16.0151 16.8393 16.0601 16.7943 16.1142 16.7404C16.4655 16.3897 16.8303 16.0211 17.2086 15.6345C17.596 15.2479 17.9833 14.8613 18.3706 14.4747C18.758 14.079 19.1408 13.6879 19.5191 13.3013C19.9064 12.9147 20.2758 12.5461 20.6271 12.1954C20.7081 12.1055 20.7487 12.0471 20.7487 12.0201C20.7487 11.9841 20.6991 11.9167 20.6 11.8178L16.1412 7.3133C16.0782 7.25036 16.0286 7.20091 15.9926 7.16495C15.9656 7.12898 15.943 7.09302 15.925 7.05705C15.916 7.02109 15.907 6.97613 15.898 6.92219C15.898 6.86824 15.898 6.79631 15.898 6.7064V6.18043C15.898 5.97363 15.907 5.86574 15.925 5.85675C15.952 5.84776 16.0331 5.91519 16.1682 6.05905L21.3702 11.3188C21.4243 11.3727 21.4648 11.4177 21.4918 11.4537C21.5278 11.4896 21.5504 11.5256 21.5594 11.5616C21.5774 11.5885 21.5864 11.6245 21.5864 11.6695C21.5954 11.7144 21.5999 11.7728 21.5999 11.8448V12.1954C21.5999 12.2674 21.5954 12.3258 21.5864 12.3708C21.5864 12.4157 21.5774 12.4562 21.5594 12.4921C21.5504 12.5191 21.5278 12.5506 21.4918 12.5865C21.4648 12.6225 21.4243 12.6675 21.3702 12.7214L16.1277 17.9812C16.0106 18.098 15.943 18.152 15.925 18.143C15.907 18.134 15.898 18.0441 15.898 17.8733V17.2933Z" fill="#7EC0C8"/>
</g>
<defs>
<clipPath id="clip0_902_20">
<rect width="24" height="24" fill="white"/>
</clipPath>
</defs>
</svg>
